<svg xmlns="http://www.w3.org/2000/svg" width="440" height="190" viewBox="0 0 88 38">
<path d="M75.98,25L75.29,25L75.29,21L76.22,21C76.47,22.05 76.83,22.82 77.3,23.31C77.77,23.79 78.37,24.03 79.12,24.03C79.66,24.03 80.08,23.92 80.38,23.7C80.68,23.47 80.84,23.15 80.84,22.76C80.84,22.35 80.65,21.95 80.29,21.57C79.92,21.17 79.33,20.75 78.51,20.31C77.39,19.71 76.59,19.12 76.11,18.53C75.62,17.93 75.38,17.26 75.38,16.51C75.38,16.02 75.47,15.58 75.65,15.17C75.84,14.74 76.09,14.37 76.39,14.07C76.72,13.76 77.1,13.52 77.54,13.36C77.98,13.19 78.45,13.1 78.97,13.1C79.42,13.1 79.87,13.16 80.31,13.3C80.76,13.43 81.16,13.61 81.5,13.85L81.89,13.32L82.47,13.32L82.47,16.64L81.61,16.64C81.27,15.8 80.92,15.2 80.55,14.84C80.2,14.47 79.77,14.29 79.25,14.29C78.84,14.29 78.51,14.4 78.26,14.62C78.03,14.84 77.91,15.13 77.91,15.5C77.91,15.91 78.09,16.3 78.44,16.66C78.81,17.03 79.41,17.43 80.24,17.87C80.83,18.19 81.34,18.51 81.76,18.82C82.19,19.13 82.53,19.44 82.8,19.76C83.06,20.07 83.25,20.4 83.37,20.75C83.5,21.09 83.57,21.46 83.57,21.85C83.57,22.37 83.47,22.83 83.28,23.24C83.09,23.65 82.82,24 82.47,24.3C82.11,24.59 81.69,24.82 81.19,24.98C80.71,25.14 80.16,25.22 79.56,25.22C78.93,25.22 78.34,25.14 77.8,24.98C77.26,24.8 76.81,24.55 76.46,24.23L75.98,25z" fill="#34322d"/>
<path d="M75.98,25L75.29,25L75.29,21L76.22,21C76.47,22.05 76.83,22.82 77.3,23.31C77.77,23.79 78.37,24.03 79.12,24.03C79.66,24.03 80.08,23.92 80.38,23.7C80.68,23.47 80.84,23.15 80.84,22.76C80.84,22.35 80.65,21.95 80.29,21.57C79.92,21.17 79.33,20.75 78.51,20.31C77.39,19.71 76.59,19.12 76.11,18.53C75.62,17.93 75.38,17.26 75.38,16.51C75.38,16.02 75.47,15.58 75.65,15.17C75.84,14.74 76.09,14.37 76.39,14.07C76.72,13.76 77.1,13.52 77.54,13.36C77.98,13.19 78.45,13.1 78.97,13.1C79.42,13.1 79.87,13.16 80.31,13.3C80.76,13.43 81.16,13.61 81.5,13.85L81.89,13.32L82.47,13.32L82.47,16.64L81.61,16.64C81.27,15.8 80.92,15.2 80.55,14.84C80.2,14.47 79.77,14.29 79.25,14.29C78.84,14.29 78.51,14.4 78.26,14.62C78.03,14.84 77.91,15.13 77.91,15.5C77.91,15.91 78.09,16.3 78.44,16.66C78.81,17.03 79.41,17.43 80.24,17.87C80.83,18.19 81.34,18.51 81.76,18.82C82.19,19.13 82.53,19.44 82.8,19.76C83.06,20.07 83.25,20.4 83.37,20.75C83.5,21.09 83.57,21.46 83.57,21.85C83.57,22.37 83.47,22.83 83.28,23.24C83.09,23.65 82.82,24 82.47,24.3C82.11,24.59 81.69,24.82 81.19,24.98C80.71,25.14 80.16,25.22 79.56,25.22C78.93,25.22 78.34,25.14 77.8,24.98C77.26,24.8 76.81,24.55 76.46,24.23L75.98,25z" fill="#34322d"/>
<path d="M68.96,16.95C68.96,16.36 68.94,15.9 68.91,15.56C68.89,15.21 68.8,14.95 68.67,14.77C68.54,14.58 68.34,14.45 68.08,14.4C67.83,14.32 67.48,14.26 67.04,14.22L67.04,13.34L72.02,13.34L72.02,20.01C72.02,20.9 72.02,21.6 72.04,22.12C72.07,22.62 72.11,22.99 72.17,23.24C72.21,23.43 72.27,23.58 72.32,23.7C72.38,23.8 72.48,23.89 72.61,23.97C72.74,24.02 72.92,24.07 73.14,24.1C73.37,24.11 73.67,24.12 74.04,24.12L74.04,24.98L69.66,25.24L69.42,23.28L69.33,23.28C68.95,23.9 68.42,24.38 67.73,24.71C67.04,25.05 66.27,25.22 65.42,25.22C63.85,25.22 62.65,24.66 61.83,23.55C61.2,22.7 60.88,21.49 60.88,19.92L60.88,16.95C60.88,16.35 60.87,15.88 60.84,15.54C60.81,15.19 60.73,14.92 60.6,14.75C60.48,14.57 60.3,14.45 60.05,14.4C59.8,14.32 59.45,14.26 59.01,14.22L59.01,13.34L63.94,13.34L63.94,19.57C63.94,21.05 64.13,22.13 64.49,22.8C64.86,23.46 65.45,23.79 66.25,23.79C67.12,23.79 67.79,23.39 68.25,22.6C68.72,21.84 68.96,20.72 68.96,19.24L68.96,16.95z" fill="#34322d"/>
<path d="M68.96,16.95C68.96,16.36 68.94,15.9 68.91,15.56C68.89,15.21 68.8,14.95 68.67,14.77C68.54,14.58 68.34,14.45 68.08,14.4C67.83,14.32 67.48,14.26 67.04,14.22L67.04,13.34L72.02,13.34L72.02,20.01C72.02,20.9 72.02,21.6 72.04,22.12C72.07,22.62 72.11,22.99 72.17,23.24C72.21,23.43 72.27,23.58 72.32,23.7C72.38,23.8 72.48,23.89 72.61,23.97C72.74,24.02 72.92,24.07 73.14,24.1C73.37,24.11 73.67,24.12 74.04,24.12L74.04,24.98L69.66,25.24L69.42,23.28L69.33,23.28C68.95,23.9 68.42,24.38 67.73,24.71C67.04,25.05 66.27,25.22 65.42,25.22C63.85,25.22 62.65,24.66 61.83,23.55C61.2,22.7 60.88,21.49 60.88,19.92L60.88,16.95C60.88,16.35 60.87,15.88 60.84,15.54C60.81,15.19 60.73,14.92 60.6,14.75C60.48,14.57 60.3,14.45 60.05,14.4C59.8,14.32 59.45,14.26 59.01,14.22L59.01,13.34L63.94,13.34L63.94,19.57C63.94,21.05 64.13,22.13 64.49,22.8C64.86,23.46 65.45,23.79 66.25,23.79C67.12,23.79 67.79,23.39 68.25,22.6C68.72,21.84 68.96,20.72 68.96,19.24L68.96,16.95z" fill="#34322d"/>
<path d="M48.62,21.41C48.62,22.02 48.63,22.49 48.66,22.84C48.71,23.18 48.79,23.45 48.9,23.64C49.04,23.81 49.23,23.93 49.48,23.99C49.74,24.05 50.09,24.09 50.53,24.12L50.53,25L43.6,25L43.6,24.12C44.03,24.09 44.36,24.05 44.61,23.99C44.88,23.93 45.08,23.81 45.21,23.64C45.35,23.46 45.45,23.21 45.49,22.89C45.54,22.57 45.56,22.13 45.56,21.57L45.56,18.82C45.56,17.95 45.55,17.26 45.52,16.73C45.49,16.19 45.45,15.82 45.41,15.63C45.36,15.44 45.3,15.28 45.23,15.17C45.16,15.03 45.05,14.94 44.9,14.88C44.75,14.81 44.57,14.76 44.35,14.75C44.13,14.72 43.85,14.7 43.51,14.7L43.51,13.96L47.76,13.12L48.05,15.06L48.13,15.06C48.62,14.44 49.19,13.96 49.85,13.63C50.51,13.29 51.24,13.12 52.03,13.12C52.97,13.12 53.72,13.25 54.29,13.52C54.88,13.77 55.4,14.19 55.86,14.79C56.11,15.13 56.33,15.57 56.52,16.11C56.71,16.64 56.8,17.37 56.8,18.31L56.8,21.41C56.8,22.02 56.82,22.49 56.85,22.84C56.89,23.18 56.97,23.45 57.09,23.64C57.22,23.81 57.41,23.93 57.66,23.99C57.91,24.05 58.25,24.09 58.67,24.12L58.67,25L51.79,25L51.79,24.12C52.23,24.11 52.57,24.07 52.82,24.01C53.08,23.94 53.28,23.81 53.41,23.64C53.55,23.46 53.63,23.21 53.68,22.89C53.72,22.55 53.74,22.11 53.74,21.57L53.74,18.58C53.74,17.83 53.7,17.2 53.61,16.68C53.52,16.17 53.38,15.76 53.17,15.45C52.98,15.13 52.72,14.9 52.4,14.77C52.08,14.62 51.68,14.55 51.19,14.55C50.72,14.55 50.32,14.68 49.98,14.95C49.64,15.21 49.35,15.58 49.1,16.05C48.97,16.31 48.85,16.65 48.75,17.08C48.66,17.49 48.62,17.92 48.62,18.38L48.62,21.41z" fill="#34322d"/>
<path d="M48.62,21.41C48.62,22.02 48.63,22.49 48.66,22.84C48.71,23.18 48.79,23.45 48.91,23.64C49.04,23.81 49.23,23.93 49.48,23.99C49.74,24.05 50.09,24.09 50.53,24.12L50.53,25L43.6,25L43.6,24.12C44.03,24.09 44.37,24.05 44.62,23.99C44.88,23.93 45.08,23.81 45.21,23.64C45.36,23.46 45.45,23.21 45.5,22.89C45.54,22.57 45.56,22.13 45.56,21.57L45.56,18.82C45.56,17.95 45.55,17.26 45.52,16.73C45.49,16.19 45.45,15.82 45.41,15.63C45.36,15.44 45.3,15.28 45.23,15.17C45.16,15.03 45.05,14.94 44.9,14.88C44.75,14.81 44.57,14.76 44.35,14.75C44.13,14.72 43.85,14.7 43.52,14.7L43.52,13.96L47.76,13.12L48.05,15.06L48.14,15.06C48.62,14.44 49.19,13.96 49.85,13.63C50.51,13.29 51.24,13.12 52.03,13.12C52.97,13.12 53.72,13.25 54.3,13.52C54.88,13.77 55.4,14.19 55.86,14.79C56.11,15.13 56.33,15.57 56.52,16.11C56.71,16.64 56.8,17.37 56.8,18.31L56.8,21.41C56.8,22.02 56.82,22.49 56.85,22.84C56.89,23.18 56.97,23.45 57.09,23.64C57.22,23.81 57.41,23.93 57.66,23.99C57.91,24.05 58.25,24.09 58.67,24.12L58.67,25L51.79,25L51.79,24.12C52.23,24.11 52.57,24.07 52.82,24.01C53.09,23.94 53.28,23.81 53.42,23.64C53.55,23.46 53.64,23.21 53.68,22.89C53.72,22.55 53.75,22.11 53.75,21.57L53.75,18.58C53.75,17.83 53.7,17.2 53.61,16.68C53.53,16.17 53.38,15.76 53.17,15.45C52.98,15.13 52.73,14.9 52.4,14.77C52.08,14.62 51.68,14.55 51.19,14.55C50.72,14.55 50.32,14.68 49.98,14.95C49.65,15.21 49.35,15.58 49.1,16.05C48.97,16.31 48.85,16.65 48.75,17.08C48.66,17.49 48.62,17.92 48.62,18.38L48.62,21.41z" fill="#34322d" transform="matrix(1 0 0 1 0 0)"/>
<path d="M38.12,18.73C36.89,19.29 35.96,19.81 35.33,20.29C34.71,20.76 34.4,21.25 34.4,21.77C34.4,22.19 34.52,22.53 34.75,22.78C34.99,23.03 35.28,23.15 35.63,23.15C35.99,23.15 36.32,23.09 36.62,22.98C36.93,22.84 37.2,22.68 37.42,22.47C37.64,22.26 37.8,22.02 37.92,21.74C38.05,21.45 38.12,21.14 38.12,20.82L38.12,18.73zM38.12,17.56L38.12,16.64C38.12,15.79 37.97,15.17 37.66,14.79C37.36,14.4 36.9,14.2 36.27,14.2C35.85,14.2 35.52,14.32 35.3,14.55C35.08,14.77 34.88,15.14 34.69,15.67C34.56,16.04 34.36,16.32 34.12,16.53C33.88,16.74 33.55,16.84 33.13,16.84C32.71,16.84 32.4,16.71 32.18,16.46C31.96,16.21 31.85,15.86 31.85,15.41C31.85,14.7 32.23,14.15 32.99,13.74C33.77,13.33 34.94,13.12 36.49,13.12C38.13,13.12 39.31,13.42 40.01,14.02C40.72,14.61 41.07,15.6 41.07,16.99L41.07,21.81C41.07,23.06 41.32,23.68 41.82,23.68C42.09,23.68 42.35,23.58 42.59,23.39L42.92,24.03C42.71,24.4 42.39,24.69 41.95,24.91C41.52,25.12 41.04,25.22 40.5,25.22C39.82,25.22 39.31,25.01 38.96,24.6C38.6,24.19 38.43,23.61 38.43,22.87L38.32,22.87C37.89,23.63 37.34,24.21 36.67,24.6C35.99,25 35.22,25.2 34.36,25.2C33.43,25.2 32.69,24.94 32.14,24.43C31.58,23.9 31.3,23.22 31.3,22.38C31.3,21.74 31.59,21.14 32.16,20.58C32.73,20.01 33.68,19.45 35.02,18.91L38.12,17.56z" fill="#34322d"/>
<path d="M38.12,18.73C36.89,19.29 35.96,19.81 35.33,20.29C34.71,20.76 34.4,21.25 34.4,21.77C34.4,22.19 34.52,22.53 34.75,22.78C34.99,23.03 35.28,23.15 35.63,23.15C35.99,23.15 36.32,23.09 36.62,22.98C36.93,22.84 37.2,22.68 37.42,22.47C37.64,22.26 37.81,22.02 37.92,21.74C38.05,21.45 38.12,21.14 38.12,20.82L38.12,18.73zM38.12,17.56L38.12,16.64C38.12,15.79 37.97,15.17 37.66,14.79C37.37,14.4 36.9,14.2 36.27,14.2C35.85,14.2 35.52,14.32 35.3,14.55C35.08,14.77 34.88,15.14 34.69,15.67C34.56,16.04 34.37,16.32 34.12,16.53C33.88,16.74 33.55,16.84 33.13,16.84C32.72,16.84 32.4,16.71 32.18,16.46C31.96,16.21 31.85,15.86 31.85,15.41C31.85,14.7 32.23,14.15 32.99,13.74C33.77,13.33 34.94,13.12 36.49,13.12C38.14,13.12 39.31,13.42 40.01,14.02C40.72,14.61 41.07,15.6 41.07,16.99L41.07,21.81C41.07,23.06 41.32,23.68 41.82,23.68C42.1,23.68 42.35,23.58 42.59,23.39L42.92,24.03C42.71,24.4 42.39,24.69 41.95,24.91C41.52,25.12 41.04,25.22 40.5,25.22C39.82,25.22 39.31,25.01 38.96,24.6C38.6,24.19 38.43,23.61 38.43,22.87L38.32,22.87C37.89,23.63 37.34,24.21 36.67,24.6C35.99,25 35.22,25.2 34.36,25.2C33.43,25.2 32.69,24.94 32.14,24.43C31.58,23.9 31.3,23.22 31.3,22.38C31.3,21.74 31.59,21.14 32.16,20.58C32.73,20.01 33.68,19.45 35.02,18.91L38.12,17.56z" fill="#34322d"/>
<path d="M12.11,21.37C12.11,21.99 12.12,22.47 12.15,22.82C12.18,23.17 12.26,23.45 12.39,23.64C12.52,23.81 12.71,23.93 12.96,23.99C13.21,24.05 13.56,24.09 14,24.12L14,25L7.05,25L7.05,24.12C7.49,24.09 7.84,24.05 8.1,23.99C8.37,23.93 8.56,23.81 8.7,23.64C8.83,23.46 8.92,23.21 8.96,22.89C9,22.55 9.03,22.1 9.03,21.55L9.03,18.82C9.03,17.98 9.01,17.29 8.98,16.73C8.97,16.17 8.93,15.79 8.87,15.58C8.83,15.39 8.77,15.25 8.7,15.14C8.64,15.03 8.53,14.94 8.39,14.88C8.26,14.81 8.08,14.76 7.86,14.75C7.64,14.72 7.35,14.7 7,14.7L7,13.96L11.25,13.12L11.51,15.03L11.64,15.03C12.26,14.34 12.88,13.85 13.49,13.56C14.12,13.27 14.85,13.12 15.67,13.12C16.64,13.12 17.44,13.29 18.07,13.63C18.7,13.96 19.17,14.45 19.5,15.08L19.59,15.08C20.11,14.46 20.74,13.99 21.48,13.65C22.21,13.3 23,13.12 23.83,13.12C24.71,13.12 25.47,13.23 26.12,13.45C26.78,13.67 27.29,13.99 27.66,14.4C27.95,14.73 28.17,15.17 28.3,15.72C28.44,16.26 28.52,17.01 28.52,17.98L28.52,21.37C28.52,21.97 28.53,22.45 28.56,22.8C28.61,23.15 28.69,23.42 28.83,23.61C28.96,23.8 29.15,23.93 29.4,23.99C29.65,24.05 29.99,24.09 30.43,24.12L30.43,25L23.48,25L23.48,24.12C23.92,24.11 24.26,24.07 24.51,24.01C24.78,23.94 24.98,23.81 25.11,23.64C25.25,23.45 25.34,23.19 25.37,22.87C25.42,22.54 25.44,22.1 25.44,21.55L25.44,18.66C25.44,17.9 25.39,17.26 25.31,16.73C25.22,16.2 25.08,15.77 24.89,15.45C24.7,15.13 24.44,14.9 24.12,14.77C23.81,14.62 23.43,14.55 22.97,14.55C22.46,14.55 22.03,14.67 21.7,14.92C21.37,15.17 21.1,15.5 20.88,15.89C20.5,16.58 20.31,17.44 20.31,18.47L20.31,21.37C20.31,21.97 20.33,22.45 20.36,22.8C20.38,23.15 20.47,23.42 20.6,23.61C20.73,23.8 20.92,23.93 21.17,23.99C21.43,24.05 21.79,24.09 22.25,24.12L22.25,25L15.27,25L15.27,24.12C15.71,24.09 16.06,24.05 16.31,23.99C16.57,23.93 16.77,23.81 16.9,23.64C17.05,23.46 17.14,23.21 17.17,22.89C17.21,22.55 17.23,22.1 17.23,21.55L17.23,18.66C17.23,17.9 17.19,17.26 17.1,16.73C17.01,16.2 16.86,15.77 16.66,15.45C16.47,15.13 16.21,14.9 15.89,14.77C15.57,14.62 15.16,14.55 14.68,14.55C14.2,14.55 13.79,14.67 13.47,14.9C13.16,15.14 12.9,15.45 12.7,15.85C12.51,16.2 12.36,16.6 12.26,17.06C12.16,17.51 12.11,17.98 12.11,18.47L12.11,21.37z" fill="#34322d"/>
<path d="M12.1,21.37C12.1,21.99 12.12,22.47 12.15,22.82C12.18,23.17 12.26,23.45 12.39,23.64C12.52,23.81 12.71,23.93 12.96,23.99C13.21,24.05 13.56,24.09 14,24.12L14,25L7.04,25L7.04,24.12C7.48,24.09 7.84,24.05 8.1,23.99C8.36,23.93 8.56,23.81 8.69,23.64C8.83,23.46 8.91,23.21 8.96,22.89C9,22.55 9.02,22.1 9.02,21.55L9.02,18.82C9.02,17.98 9.01,17.29 8.98,16.73C8.97,16.17 8.93,15.79 8.87,15.58C8.83,15.39 8.77,15.25 8.69,15.14C8.64,15.03 8.53,14.94 8.39,14.88C8.25,14.81 8.08,14.76 7.86,14.75C7.64,14.72 7.35,14.7 7,14.7L7,13.96L11.25,13.12L11.51,15.03L11.64,15.03C12.26,14.34 12.87,13.85 13.49,13.56C14.12,13.27 14.85,13.12 15.67,13.12C16.64,13.12 17.44,13.29 18.07,13.63C18.7,13.96 19.17,14.45 19.5,15.08L19.58,15.08C20.11,14.46 20.74,13.99 21.48,13.65C22.21,13.3 22.99,13.12 23.83,13.12C24.71,13.12 25.47,13.23 26.12,13.45C26.78,13.67 27.29,13.99 27.66,14.4C27.95,14.73 28.16,15.17 28.3,15.72C28.44,16.26 28.52,17.01 28.52,17.98L28.52,21.37C28.52,21.97 28.53,22.45 28.56,22.8C28.6,23.15 28.69,23.42 28.82,23.61C28.96,23.8 29.15,23.93 29.4,23.99C29.65,24.05 29.99,24.09 30.43,24.12L30.43,25L23.48,25L23.48,24.12C23.92,24.11 24.26,24.07 24.51,24.01C24.78,23.94 24.97,23.81 25.11,23.64C25.25,23.45 25.34,23.19 25.37,22.87C25.41,22.54 25.44,22.1 25.44,21.55L25.44,18.66C25.44,17.9 25.39,17.26 25.3,16.73C25.22,16.2 25.08,15.77 24.89,15.45C24.7,15.13 24.44,14.9 24.12,14.77C23.81,14.62 23.43,14.55 22.97,14.55C22.46,14.55 22.03,14.67 21.7,14.92C21.37,15.17 21.1,15.5 20.88,15.89C20.5,16.58 20.31,17.44 20.31,18.47L20.31,21.37C20.31,21.97 20.32,22.45 20.35,22.8C20.38,23.15 20.46,23.42 20.6,23.61C20.73,23.8 20.92,23.93 21.17,23.99C21.43,24.05 21.79,24.09 22.25,24.12L22.25,25L15.27,25L15.27,24.12C15.71,24.09 16.06,24.05 16.31,23.99C16.57,23.93 16.77,23.81 16.9,23.64C17.05,23.46 17.13,23.21 17.16,22.89C17.21,22.55 17.23,22.1 17.23,21.55L17.23,18.66C17.23,17.9 17.19,17.26 17.1,16.73C17.01,16.2 16.86,15.77 16.66,15.45C16.47,15.13 16.21,14.9 15.89,14.77C15.57,14.62 15.16,14.55 14.68,14.55C14.19,14.55 13.79,14.67 13.47,14.9C13.16,15.14 12.9,15.45 12.7,15.85C12.51,16.2 12.36,16.6 12.26,17.06C12.16,17.51 12.1,17.98 12.1,18.47L12.1,21.37z" fill="#34322d"/>
<text fill="#34322d" x="3.500000194464097" y="25.092190788683787" font-size="20" font-family="Times New Roman" text-anchor="middle" xml:space="preserve">i</text>
</svg>